<svg xmlns="http://www.w3.org/2000/svg" viewBox="0 0 793.70135 793.70667">
  <g
     transform="translate(-813.70136)">
    <path
       d="m 0,0 c -12.179,4.584 -24.018,7.8 -36.701,10.392 -24.131,4.931 -48.054,7.636 -72.71,9.126 -56.281,3.045 -117.253,0.435 -172.087,-12.861 l -22.61,-7.032 10.364,-10.152 c 23.195,-19.818 50.422,-33.867 80.137,-41.612 C -138.228,-71.785 -57.765,-53.772 0,0 m 101.74,200.798 c -5.712,29.453 -16.175,57.567 -35.398,80.673 -2.834,3.407 -5.574,5.882 -9.398,8.891 l -0.46,-5.745 0.023,-235.837 c 8.625,6.547 14.135,14.418 19.746,22.582 8.027,12.609 13.949,25.75 18.721,39.986 10.031,29.922 12.812,58.278 6.766,89.45 M -367.185,54.225 c 1.795,-1.978 3.99,-3.564 6.662,-5.224 l -0.006,241.403 c -25.898,-25.066 -39.721,-61.844 -45.402,-96.127 -2.839,-17.131 -2.977,-33.813 -0.159,-50.975 5.01,-30.507 18.021,-66.076 38.905,-89.077 M 35.739,75.16 35.722,261.519 27.974,276.355 c -9.329,17.866 -21.064,34.02 -35.892,47.917 l -59.885,-6.854 -18.211,-24.259 c -25.247,4.046 -50.023,6.172 -75.56,5.362 -18.87,-0.599 -36.787,-2.808 -54.987,-5.53 l -17.97,24.331 -61.209,6.639 c -18.684,-17.725 -33.615,-39.102 -44.334,-62.459 l 0.014,-186.596 c 9.289,-20.393 22.836,-38.372 39.758,-53.25 24.067,6.628 48.211,10.871 73.064,13.429 49.052,5.049 98.121,5.185 147.17,0.774 17.636,-1.586 34.485,-4.177 51.681,-7.672 L -3.964,21.863 C 12.422,36.892 26.692,54.175 35.739,75.16 M -0.276,346.84 c -15.074,15.867 -32.637,28.421 -52.115,38.412 -15.401,7.9 -31.323,12.922 -48.3,16.686 -31.583,6.488 -63.665,6.15 -95.333,-0.243 -39.084,-7.891 -77.764,-26.522 -106.528,-55.251 18.969,-3.655 37.378,-5.934 56.662,-7.815 81.353,-7.938 164.72,-6.03 245.614,8.211 M -19.673,-39.251 c -20.19,-13.232 -41.34,-22.858 -64.379,-29.121 -47.854,-13.008 -98.481,-12.323 -145.917,2.322 -31.69,9.784 -60.578,26.441 -84.796,48.845 l -11.375,11.864 c -2.891,3.015 -3.424,7.629 -2.406,11.599 0.903,3.523 3.317,6.741 7.771,8.521 -8.183,7.803 -15.34,16.133 -22.173,25.919 -1.878,-6.218 -6.64,-10.385 -12.854,-11.638 -6.598,-1.331 -13.052,0.823 -18.246,5.267 -8.853,7.574 -16.021,16.396 -22.279,26.472 -25.029,40.302 -37.191,90.088 -29.213,137.356 6.438,38.142 22.206,78.319 49.908,105.615 4.992,4.919 10.786,8.123 17.826,7.522 7.23,-0.616 13.021,-5.085 15.219,-12.218 6.414,10.336 13.742,19.393 22.308,28.535 -8.059,2.548 -11.552,12.329 -6.783,19.703 3.438,5.316 7.804,9.733 12.598,14.273 27.702,26.236 61.481,45.549 98.492,55.665 40.366,11.033 82.648,11.863 123.404,2.907 42.928,-9.432 81.333,-32.049 110.561,-64.376 3.058,-3.382 5.831,-6.652 7.434,-10.725 2.878,-7.31 -1.022,-15.176 -8.179,-17.356 8.295,-8.605 14.682,-17.949 21.353,-28.396 2.372,6.298 7.019,10.567 13.648,11.693 6.648,1.129 13.292,-0.699 18.586,-4.982 15.901,-12.864 29.096,-35.189 37.029,-54.23 9.538,-22.894 15.45,-46.548 17.168,-71.375 C 127.971,137.951 114.522,91.562 90.025,56.991 83.986,48.468 77.4,40.982 69.516,34.382 65.179,30.751 60.293,28.64 54.566,28.672 47.063,28.713 41.225,33.571 38.294,40.16 L 21.531,20.43 16.769,15.822 16.064,15.15 C 15.928,15.02 16.585,14.656 17.049,14.472 23.79,11.803 27.328,1.83 21.885,-4.552 10.193,-18.26 -4.19,-29.104 -19.673,-39.251"
       style="fill:#3d3660;fill-opacity:1;fill-rule:nonzero;stroke:none"
       transform="matrix(1.3333333,0,0,-1.3333333,1412.2443,629.28907)" />
    <path
       d="m 0,0 c -0.026,-5.756 -3.693,-10.375 -7.954,-12.388 -5.007,-2.365 -11.031,-2.157 -15.587,1.346 -6.225,4.786 -11.266,10.681 -15.784,17.3 -26.656,39.053 -29.689,88.572 -4.743,129.135 5.568,9.054 12.073,16.949 20.099,23.602 5.994,4.968 14.344,4.448 19.986,-0.666 5.138,-4.656 6.222,-13.243 1.234,-18.662 -8.359,-9.084 -15.485,-18.506 -20.497,-30.038 C -37.832,76.068 -29.68,39.969 -5.966,12.735 -2.865,9.174 0.024,5.449 0,0"
       style="fill:#3d3660;fill-opacity:1;fill-rule:nonzero;stroke:none"
       transform="matrix(1.3333333,0,0,-1.3333333,1103.7164,507.4584)" />
    <path
       d="m 0,0 c 1.134,3.429 3.274,6.057 5.458,8.612 21.254,24.859 30.605,55.17 21.402,87.206 -3.936,13.7 -10.236,26.358 -20.136,36.663 -4.334,4.513 -6.833,10.272 -4.053,16.438 1.985,4.402 6.332,7.404 10.426,8.189 5.222,1.002 9.962,-0.343 13.892,-3.763 C 49.416,133.828 61.218,97.683 60.266,68.02 59.245,36.25 45.676,6.188 23.053,-15.709 18.192,-20.414 10.734,-20.207 5.672,-17.03 0.189,-13.588 -2.228,-6.735 0,0"
       style="fill:#3d3660;fill-opacity:1;fill-rule:nonzero;stroke:none"
       transform="matrix(1.3333333,0,0,-1.3333333,1315.4167,500.24653)" />
  </g>
</svg>
